HIERARCHY
ROOT Hips
{
	OFFSET 0.000000 0.043550 0.896534
	CHANNELS 6 Xposition Yposition Zposition Xrotation Yrotation Zrotation
	JOINT LHipJoint
	{
		OFFSET 0.000000 0.000000 0.000000
		CHANNELS 3 Xrotation Yrotation Zrotation
		JOINT LeftUpLeg
		{
			OFFSET 0.097284 0.004447 -0.013777
			CHANNELS 3 Xrotation Yrotation Zrotation
			JOINT LeftLeg
			{
				OFFSET 0.013386 -0.031210 -0.408447
				CHANNELS 3 Xrotation Yrotation Zrotation
				JOINT LeftFoot
				{
					OFFSET 0.003510 0.024501 -0.404520
					CHANNELS 3 Xrotation Yrotation Zrotation
					JOINT LeftToeBase
					{
						OFFSET 0.012440 -0.128101 -0.047900
						CHANNELS 3 Xrotation Yrotation Zrotation
						End Site
						{
							OFFSET 0.002578 -0.016717 -0.002681
						}
					}
				}
			}
		}
	}
	JOINT LowerBack
	{
		OFFSET 0.000000 0.045297 0.070846
		CHANNELS 3 Xrotation Yrotation Zrotation
		JOINT Spine
		{
			OFFSET 0.000000 -0.034990 0.157580
			CHANNELS 3 Xrotation Yrotation Zrotation
			JOINT Spine1
			{
				OFFSET 0.000000 0.000366 0.159040
				CHANNELS 3 Xrotation Yrotation Zrotation
				JOINT LeftShoulder
				{
					OFFSET 0.024456 -0.010626 0.079720
					CHANNELS 3 Xrotation Yrotation Zrotation
					JOINT LeftArm
					{
						OFFSET 0.141044 0.001144 0.014890
						CHANNELS 3 Xrotation Yrotation Zrotation
						JOINT LeftForeArm
						{
							OFFSET 0.251520 0.004037 -0.003460
							CHANNELS 3 Xrotation Yrotation Zrotation
							JOINT LeftHand
							{
								OFFSET 0.225890 0.003184 0.000780
								CHANNELS 3 Xrotation Yrotation Zrotation
								JOINT LThumb
								{
									OFFSET 0.032340 -0.026252 -0.004130
									CHANNELS 3 Xrotation Yrotation Zrotation
									End Site
									{
										OFFSET 0.009397 -0.016305 -0.022342
									}
								}
								JOINT LeftFingerBase
								{
									OFFSET 0.029560 -0.005906 -0.002750
									CHANNELS 3 Xrotation Yrotation Zrotation
									JOINT LeftHandFinger1
									{
										OFFSET 0.065250 -0.026825 0.003210
										CHANNELS 3 Xrotation Yrotation Zrotation
										End Site
										{
											OFFSET 0.024100 0.000384 -0.003163
										}
									}
								}
							}
						}
					}
				}
				JOINT Neck
				{
					OFFSET 0.000000 0.009714 0.150560
					CHANNELS 3 Xrotation Yrotation Zrotation
					JOINT Neck1
					{
						OFFSET 0.000000 -0.017154 0.060490
						CHANNELS 3 Xrotation Yrotation Zrotation
						JOINT Head
						{
							OFFSET 0.000000 -0.017155 0.060480
							CHANNELS 3 Xrotation Yrotation Zrotation
							End Site
							{
								OFFSET 0.000000 0.005825 0.136220
							}
						}
					}
				}
				JOINT RightShoulder
				{
					OFFSET -0.024456 -0.010626 0.079720
					CHANNELS 3 Xrotation Yrotation Zrotation
					JOINT RightArm
					{
						OFFSET -0.141044 0.001144 0.014890
						CHANNELS 3 Xrotation Yrotation Zrotation
						JOINT RightForeArm
						{
							OFFSET -0.251520 0.004037 -0.003460
							CHANNELS 3 Xrotation Yrotation Zrotation
							JOINT RightHand
							{
								OFFSET -0.225890 0.003184 0.000780
								CHANNELS 3 Xrotation Yrotation Zrotation
								JOINT RThumb
								{
									OFFSET -0.032340 -0.026252 -0.004130
									CHANNELS 3 Xrotation Yrotation Zrotation
									End Site
									{
										OFFSET -0.009392 -0.016302 -0.022341
									}
								}
								JOINT RightFingerBase
								{
									OFFSET -0.029560 -0.005906 -0.002750
									CHANNELS 3 Xrotation Yrotation Zrotation
									JOINT RightHandFinger1
									{
										OFFSET -0.065250 -0.026825 0.003210
										CHANNELS 3 Xrotation Yrotation Zrotation
										End Site
										{
											OFFSET -0.024100 0.000384 -0.003164
										}
									}
								}
							}
						}
					}
				}
			}
		}
	}
	JOINT RHipJoint
	{
		OFFSET 0.000000 0.000000 0.000000
		CHANNELS 3 Xrotation Yrotation Zrotation
		JOINT RightUpLeg
		{
			OFFSET -0.097284 0.004447 -0.013777
			CHANNELS 3 Xrotation Yrotation Zrotation
			JOINT RightLeg
			{
				OFFSET -0.013386 -0.031210 -0.408447
				CHANNELS 3 Xrotation Yrotation Zrotation
				JOINT RightFoot
				{
					OFFSET -0.003510 0.024501 -0.404520
					CHANNELS 3 Xrotation Yrotation Zrotation
					JOINT RightToeBase
					{
						OFFSET -0.012440 -0.128101 -0.047900
						CHANNELS 3 Xrotation Yrotation Zrotation
						End Site
						{
							OFFSET -0.002578 -0.016717 -0.002682
						}
					}
				}
			}
		}
	}
}
MOTION
Frames: 9
Frame Time: 0.041667
0.526704 -1.815926 1.028105 4.601543 -4.937499 -181.103381 0.000011 -0.000001 -0.000003 0.040885 -6.579998 1.404143 11.966462 -1.738765 0.528009 -9.870246 -0.489478 2.808399 -2.944947 0.013498 -0.053299 11.610645 -1.941422 1.076416 0.006723 -3.337394 1.587011 -6.563941 -2.123843 0.609947 -0.000002 -0.000000 -0.000001 638.449091 128.756169 -630.068886 -8.318984 -21.047197 -43.424133 -14.279607 -20.070299 -13.335843 0.000003 0.000002 -0.000002 0.000001 0.000001 0.000004 0.000002 0.000000 0.000000 -9.943022 7.205158 -2.848085 13.481549 -5.944048 -4.141913 -0.000001 0.000001 0.000000 -0.000000 -0.000002 -0.000000 255.924183 -114.183373 254.503039 -4.542236 16.216414 31.855220 24.998284 23.075535 -2.587771 -0.000003 0.000002 0.000003 -0.000001 0.000001 -0.000001 0.000000 0.000000 -0.000002 0.000007 -0.000002 -0.000003 -0.495314 -3.030124 0.881391 15.205200 1.767410 -0.648434 -9.831337 1.722902 -8.154747 6.396599 0.132642 -0.007573 
0.526503 -1.811685 1.027580 4.226524 -4.587938 -181.034683 0.000009 -0.000001 -0.000003 -0.445210 -6.258880 1.319083 12.244113 -1.739934 0.537653 -10.366565 -0.437114 2.737924 -1.778230 0.039401 -0.012494 12.882390 -1.779473 1.103216 -0.201756 -3.311483 1.601954 -7.507052 -2.142541 0.602376 -0.000002 0.000001 -0.000002 636.066612 129.774373 -629.004360 -8.592480 -21.335003 -44.189695 -15.555283 -20.360755 -11.684324 0.000002 -0.000001 -0.000005 0.000003 -0.000000 0.000000 0.000002 -0.000002 -0.000000 -10.103825 7.242226 -2.616508 12.752133 -4.712959 -3.922423 -0.000003 0.000000 -0.000001 -0.000000 -0.000002 -0.000000 252.806721 -112.478107 253.502580 -5.036672 16.986701 33.553642 24.055259 22.423451 -2.936756 -0.000009 -0.000002 -0.000001 -0.000003 -0.000004 -0.000003 -0.000003 -0.000003 -0.000001 0.000003 -0.000000 -0.000002 -1.145949 -2.752528 1.141226 15.927137 1.751620 -0.666259 -10.426499 1.925085 -8.555164 6.690073 0.144459 -0.057698 
0.526303 -1.807445 1.027056 4.319433 -4.434194 -181.539038 0.000008 0.000000 -0.000004 -0.328227 -6.043068 1.295950 12.521625 -1.741055 0.547298 -10.889132 -0.604748 3.112434 -2.173663 0.042916 0.012588 13.224347 -1.616645 1.021081 0.163686 -3.527935 1.634376 -7.324792 -2.499204 0.616066 -0.000002 0.000000 -0.000001 634.930943 128.602326 -628.964527 -8.508746 -21.250619 -43.961840 -14.686613 -20.772719 -11.507849 0.000003 -0.000003 -0.000003 -0.000001 0.000001 0.000002 0.000005 -0.000001 -0.000001 -9.697380 7.126584 -2.053478 11.378457 -3.554486 -3.215176 -0.000003 0.000000 -0.000001 0.000000 -0.000001 -0.000000 250.591144 -111.656299 252.999359 -5.437156 17.567622 34.867754 23.308357 23.083876 -3.745237 -0.000003 0.000002 0.000003 0.000001 0.000001 0.000002 0.000001 0.000000 -0.000001 0.000001 0.000001 -0.000002 -1.502290 -2.681022 1.759987 16.821310 1.730601 -0.687544 -10.738605 2.095141 -8.989671 5.419093 0.085383 -0.062892 
0.526102 -1.803204 1.026531 4.416626 -4.587044 -181.835741 0.000008 -0.000000 -0.000003 0.349135 -6.122966 1.100450 12.374857 -1.753563 0.547421 -10.605876 -0.709848 3.575379 -3.344212 0.047553 -0.024170 13.161008 -2.042740 1.058091 0.700949 -3.534734 1.672037 -6.704487 -2.272937 0.638512 -0.000003 0.000001 -0.000001 632.466665 127.944838 -627.578053 -8.158185 -20.882299 -42.984208 -12.181087 -21.467694 -11.998035 0.000003 -0.000002 -0.000003 0.000003 0.000001 0.000002 0.000001 0.000002 0.000001 -9.652522 6.730393 -1.994320 10.817520 -2.682739 -3.165294 -0.000001 -0.000000 0.000000 -0.000000 -0.000002 -0.000000 250.179202 -111.739265 253.315652 -5.940988 18.262579 36.475129 22.296837 23.702324 -1.315988 -0.000008 0.000000 0.000003 -0.000001 -0.000003 -0.000003 0.000002 0.000000 -0.000000 0.000003 -0.000001 -0.000003 -1.106080 -2.923138 2.239297 17.112713 1.726903 -0.695861 -11.522084 2.203354 -9.109806 3.755550 0.081930 -0.030325 
0.525901 -1.798963 1.026006 4.523089 -5.009986 -181.789460 0.000011 0.000000 -0.000003 0.678079 -6.533093 1.345248 12.606099 -1.755894 0.556057 -11.143590 -0.688086 3.549200 -4.206960 0.093855 -0.027479 12.847070 -2.835119 1.049945 0.926378 -3.547560 1.547198 -6.265773 -1.873854 0.634945 -0.000002 0.000001 -0.000002 630.528203 127.145925 -625.525117 -7.969781 -20.679682 -42.453826 -10.407760 -22.544540 -12.329412 -0.000000 0.000001 -0.000005 0.000001 0.000003 0.000000 0.000009 0.000000 -0.000000 -9.457209 6.730533 -1.793645 11.197519 -2.734021 -2.879612 -0.000003 -0.000000 -0.000000 0.000000 -0.000001 -0.000000 250.530437 -113.185346 253.812452 -6.304782 18.731116 37.588228 23.749295 24.473066 -1.157709 0.000003 0.000003 -0.000002 0.000000 -0.000000 -0.000003 -0.000002 -0.000002 -0.000001 0.000003 -0.000001 -0.000003 -0.443453 -3.226847 1.777183 16.761981 1.741912 -0.690567 -11.807526 2.152098 -8.770520 3.887414 0.119452 -0.012074 
0.525701 -1.794723 1.025481 4.086860 -4.716220 -181.995786 0.000009 0.000000 -0.000004 0.519587 -6.249836 1.847925 12.837243 -1.758189 0.564698 -11.384214 -0.538203 3.183137 -3.340223 0.065177 0.022690 12.229434 -2.640634 1.039231 0.959747 -3.462910 1.534192 -5.859307 -1.930619 0.633955 -0.000002 0.000000 -0.000002 628.792351 125.532402 -623.820028 -7.677873 -20.356301 -41.619426 -9.634995 -22.652770 -11.532639 0.000004 0.000001 -0.000002 0.000001 0.000003 0.000005 0.000004 -0.000003 -0.000002 -9.251484 6.307487 -1.889965 11.579003 -2.595956 -2.726180 -0.000000 0.000000 0.000000 -0.000000 -0.000001 -0.000000 250.938582 -114.070566 253.783902 -6.566859 19.070317 38.399706 22.171462 23.169252 -0.023871 -0.000006 0.000001 0.000001 -0.000006 -0.000002 -0.000002 -0.000003 0.000002 0.000003 0.000003 -0.000000 -0.000003 -0.655510 -2.853086 1.597274 17.002108 1.739704 -0.697824 -12.009397 2.088911 -8.442201 4.445102 0.096733 -0.036465 
0.525500 -1.790482 1.024956 3.654841 -4.766983 -181.970091 0.000004 0.000001 -0.000003 0.193149 -6.323594 1.858611 13.068274 -1.760448 0.573345 -11.647762 -0.590578 3.221538 -4.277540 0.101879 -0.057931 11.767852 -2.444192 1.033806 0.996141 -3.595218 1.523613 -5.597943 -2.159865 0.633489 -0.000002 0.000000 -0.000001 628.150860 123.474753 -622.773315 -7.389853 -20.026933 -40.783360 -9.304381 -22.282273 -10.772904 0.000001 0.000001 -0.000001 -0.000004 0.000001 0.000002 0.000002 -0.000000 0.000001 -9.258058 6.219305 -1.849160 11.831052 -2.454278 -2.576764 -0.000001 0.000000 0.000000 0.000000 -0.000001 -0.000000 251.090704 -113.738229 253.431055 -6.710140 19.250292 38.835581 19.497477 21.885157 0.783962 -0.000006 -0.000001 0.000004 0.000001 0.000001 0.000001 -0.000000 -0.000001 0.000001 0.000001 -0.000000 -0.000002 -0.580757 -3.038317 2.000463 16.711139 1.752980 -0.693762 -11.888198 2.316170 -9.316402 2.589397 0.050920 0.017948 
0.525299 -1.786241 1.024431 3.559373 -4.598656 -182.105151 0.000008 0.000001 -0.000004 0.739683 -6.025119 1.916550 12.956153 -1.772045 0.574284 -11.911263 -0.643123 3.259695 -3.837882 0.111615 -0.034015 11.882358 -2.548876 1.005736 1.028619 -3.445399 1.509806 -5.621939 -1.904479 0.620569 -0.000003 -0.000001 -0.000001 627.438936 121.314938 -621.539510 -7.105864 -19.691599 -39.945716 -8.813922 -22.812291 -10.667692 0.000003 0.000000 -0.000004 0.000004 0.000003 -0.000002 0.000004 0.000000 0.000002 -8.916026 6.127138 -1.827489 11.830911 -2.826931 -2.523892 -0.000001 0.000000 -0.000000 -0.000000 -0.000001 -0.000000 252.206839 -113.048449 253.800459 -6.673777 19.189512 38.743681 19.691802 21.987728 -0.649520 -0.000005 0.000002 -0.000000 0.000004 0.000001 -0.000001 -0.000002 0.000000 -0.000000 -0.000000 -0.000001 -0.000003 -0.401174 -2.795913 2.090789 16.920767 1.751659 -0.700391 -11.900543 2.310259 -9.339467 2.030991 0.046222 -0.026409 
0.525098 -1.782001 1.023906 3.487409 -3.828283 -181.898415 0.000006 0.000000 -0.000003 0.881241 -5.249727 2.960939 12.843999 -1.783646 0.575201 -12.177549 -0.367838 2.247074 -3.398087 0.121540 -0.010168 11.748521 -1.836498 0.817596 1.217597 -3.295401 1.348781 -5.359338 -2.219212 0.529674 -0.000002 0.000000 -0.000001 627.409047 119.867129 -621.143304 -6.941137 -19.493179 -39.455284 -7.838253 -23.567486 -11.237633 0.000004 -0.000003 -0.000006 -0.000003 -0.000000 0.000003 0.000003 0.000001 -0.000001 -8.972344 5.975082 -1.889150 11.838039 -2.680131 -2.653979 0.000000 -0.000000 0.000000 0.000000 -0.000001 -0.000000 252.990098 -112.103471 253.780214 -6.637512 19.128633 38.651784 20.410972 22.297284 -1.820288 -0.000002 0.000007 0.000004 -0.000001 -0.000001 0.000006 -0.000000 0.000002 0.000001 -0.000004 -0.000002 -0.000003 -0.249337 -1.907968 1.743429 17.130283 1.750312 -0.707012 -12.166443 2.395256 -9.442309 0.584161 0.012902 -0.004310 
